<svg id="visual" viewBox="0 0 960 540" width="960" height="540" xmlns="http://www.w3.org/2000/svg" xmlns:xlink="http://www.w3.org/1999/xlink" version="1.1"><rect x="0" y="0" width="960" height="540" fill="#001220"></rect><defs><linearGradient id="grad1_0" x1="43.8%" y1="100%" x2="100%" y2="0%"><stop offset="14.444444444444446%" stop-color="#fbae3c" stop-opacity="1"></stop><stop offset="85.55555555555554%" stop-color="#fbae3c" stop-opacity="1"></stop></linearGradient></defs><defs><linearGradient id="grad1_1" x1="43.8%" y1="100%" x2="100%" y2="0%"><stop offset="14.444444444444446%" stop-color="#fbae3c" stop-opacity="1"></stop><stop offset="85.55555555555554%" stop-color="#f48350" stop-opacity="1"></stop></linearGradient></defs><defs><linearGradient id="grad1_2" x1="43.8%" y1="100%" x2="100%" y2="0%"><stop offset="14.444444444444446%" stop-color="#d96162" stop-opacity="1"></stop><stop offset="85.55555555555554%" stop-color="#f48350" stop-opacity="1"></stop></linearGradient></defs><defs><linearGradient id="grad1_3" x1="43.8%" y1="100%" x2="100%" y2="0%"><stop offset="14.444444444444446%" stop-color="#d96162" stop-opacity="1"></stop><stop offset="85.55555555555554%" stop-color="#af4b6d" stop-opacity="1"></stop></linearGradient></defs><defs><linearGradient id="grad1_4" x1="43.8%" y1="100%" x2="100%" y2="0%"><stop offset="14.444444444444446%" stop-color="#7c3e6b" stop-opacity="1"></stop><stop offset="85.55555555555554%" stop-color="#af4b6d" stop-opacity="1"></stop></linearGradient></defs><defs><linearGradient id="grad1_5" x1="43.8%" y1="100%" x2="100%" y2="0%"><stop offset="14.444444444444446%" stop-color="#7c3e6b" stop-opacity="1"></stop><stop offset="85.55555555555554%" stop-color="#49335c" stop-opacity="1"></stop></linearGradient></defs><defs><linearGradient id="grad1_6" x1="43.8%" y1="100%" x2="100%" y2="0%"><stop offset="14.444444444444446%" stop-color="#1d2540" stop-opacity="1"></stop><stop offset="85.55555555555554%" stop-color="#49335c" stop-opacity="1"></stop></linearGradient></defs><defs><linearGradient id="grad1_7" x1="43.8%" y1="100%" x2="100%" y2="0%"><stop offset="14.444444444444446%" stop-color="#1d2540" stop-opacity="1"></stop><stop offset="85.55555555555554%" stop-color="#001220" stop-opacity="1"></stop></linearGradient></defs><defs><linearGradient id="grad2_0" x1="0%" y1="100%" x2="56.3%" y2="0%"><stop offset="14.444444444444446%" stop-color="#fbae3c" stop-opacity="1"></stop><stop offset="85.55555555555554%" stop-color="#fbae3c" stop-opacity="1"></stop></linearGradient></defs><defs><linearGradient id="grad2_1" x1="0%" y1="100%" x2="56.3%" y2="0%"><stop offset="14.444444444444446%" stop-color="#f48350" stop-opacity="1"></stop><stop offset="85.55555555555554%" stop-color="#fbae3c" stop-opacity="1"></stop></linearGradient></defs><defs><linearGradient id="grad2_2" x1="0%" y1="100%" x2="56.3%" y2="0%"><stop offset="14.444444444444446%" stop-color="#f48350" stop-opacity="1"></stop><stop offset="85.55555555555554%" stop-color="#d96162" stop-opacity="1"></stop></linearGradient></defs><defs><linearGradient id="grad2_3" x1="0%" y1="100%" x2="56.3%" y2="0%"><stop offset="14.444444444444446%" stop-color="#af4b6d" stop-opacity="1"></stop><stop offset="85.55555555555554%" stop-color="#d96162" stop-opacity="1"></stop></linearGradient></defs><defs><linearGradient id="grad2_4" x1="0%" y1="100%" x2="56.3%" y2="0%"><stop offset="14.444444444444446%" stop-color="#af4b6d" stop-opacity="1"></stop><stop offset="85.55555555555554%" stop-color="#7c3e6b" stop-opacity="1"></stop></linearGradient></defs><defs><linearGradient id="grad2_5" x1="0%" y1="100%" x2="56.3%" y2="0%"><stop offset="14.444444444444446%" stop-color="#49335c" stop-opacity="1"></stop><stop offset="85.55555555555554%" stop-color="#7c3e6b" stop-opacity="1"></stop></linearGradient></defs><defs><linearGradient id="grad2_6" x1="0%" y1="100%" x2="56.3%" y2="0%"><stop offset="14.444444444444446%" stop-color="#49335c" stop-opacity="1"></stop><stop offset="85.55555555555554%" stop-color="#1d2540" stop-opacity="1"></stop></linearGradient></defs><defs><linearGradient id="grad2_7" x1="0%" y1="100%" x2="56.3%" y2="0%"><stop offset="14.444444444444446%" stop-color="#001220" stop-opacity="1"></stop><stop offset="85.55555555555554%" stop-color="#1d2540" stop-opacity="1"></stop></linearGradient></defs><g transform="translate(960, 540)"><path d="M-378 0C-369.4 -49.8 -360.8 -99.6 -339.1 -140.4C-317.3 -181.3 -282.5 -213.2 -249.6 -249.6C-216.8 -286.1 -185.9 -327.1 -144.7 -349.2C-103.4 -371.4 -51.7 -374.7 0 -378L0 0Z" fill="#0c1c30"></path><path d="M-330.7 0C-323.2 -43.6 -315.7 -87.2 -296.7 -122.9C-277.7 -158.6 -247.2 -186.5 -218.4 -218.4C-189.7 -250.3 -162.7 -286.2 -126.6 -305.6C-90.5 -325 -45.2 -327.9 0 -330.7L0 0Z" fill="#312c4f"></path><path d="M-283.5 0C-277 -37.4 -270.6 -74.7 -254.3 -105.3C-238 -136 -211.8 -159.9 -187.2 -187.2C-162.6 -214.5 -139.4 -245.3 -108.5 -261.9C-77.5 -278.5 -38.8 -281 0 -283.5L0 0Z" fill="#623965"></path><path d="M-236.2 0C-230.9 -31.1 -225.5 -62.3 -211.9 -87.8C-198.3 -113.3 -176.5 -133.2 -156 -156C-135.5 -178.8 -116.2 -204.4 -90.4 -218.3C-64.6 -232.1 -32.3 -234.2 0 -236.2L0 0Z" fill="#96446e"></path><path d="M-189 0C-184.7 -24.9 -180.4 -49.8 -169.5 -70.2C-158.7 -90.6 -141.2 -106.6 -124.8 -124.8C-108.4 -143 -93 -163.5 -72.3 -174.6C-51.7 -185.7 -25.8 -187.3 0 -189L0 0Z" fill="#c55469"></path><path d="M-141.7 0C-138.5 -18.7 -135.3 -37.4 -127.1 -52.7C-119 -68 -105.9 -79.9 -93.6 -93.6C-81.3 -107.3 -69.7 -122.7 -54.2 -131C-38.8 -139.3 -19.4 -140.5 0 -141.7L0 0Z" fill="#e9705a"></path><path d="M-94.5 0C-92.3 -12.5 -90.2 -24.9 -84.8 -35.1C-79.3 -45.3 -70.6 -53.3 -62.4 -62.4C-54.2 -71.5 -46.5 -81.8 -36.2 -87.3C-25.8 -92.8 -12.9 -93.7 0 -94.5L0 0Z" fill="#fa9845"></path><path d="M-47.2 0C-46.2 -6.2 -45.1 -12.5 -42.4 -17.6C-39.7 -22.7 -35.3 -26.6 -31.2 -31.2C-27.1 -35.8 -23.2 -40.9 -18.1 -43.7C-12.9 -46.4 -6.5 -46.8 0 -47.2L0 0Z" fill="#fbae3c"></path></g><g transform="translate(0, 0)"><path d="M378 0C366.2 46.5 354.3 93.1 338.1 140.1C322 187 301.4 234.4 267.3 267.3C233.1 300.1 185.4 318.4 138.5 334.4C91.7 350.5 45.9 364.2 0 378L0 0Z" fill="#0c1c30"></path><path d="M330.8 0C320.4 40.7 310 81.5 295.9 122.6C281.7 163.7 263.8 205.1 233.9 233.9C204 262.6 162.2 278.6 121.2 292.6C80.2 306.7 40.1 318.7 0 330.8L0 0Z" fill="#312c4f"></path><path d="M283.5 0C274.6 34.9 265.7 69.8 253.6 105C241.5 140.3 226.1 175.8 200.5 200.5C174.9 225.1 139 238.8 103.9 250.8C68.8 262.9 34.4 273.2 0 283.5L0 0Z" fill="#623965"></path><path d="M236.3 0C228.9 29.1 221.5 58.2 211.3 87.5C201.2 116.9 188.4 146.5 167.1 167.1C145.7 187.6 115.8 199 86.6 209C57.3 219 28.7 227.6 0 236.3L0 0Z" fill="#96446e"></path><path d="M189 0C183.1 23.3 177.2 46.5 169.1 70C161 93.5 150.7 117.2 133.6 133.6C116.6 150.1 92.7 159.2 69.3 167.2C45.9 175.2 22.9 182.1 0 189L0 0Z" fill="#c55469"></path><path d="M141.8 0C137.3 17.5 132.9 34.9 126.8 52.5C120.7 70.1 113 87.9 100.2 100.2C87.4 112.5 69.5 119.4 51.9 125.4C34.4 131.4 17.2 136.6 0 141.8L0 0Z" fill="#e9705a"></path><path d="M94.5 0C91.5 11.6 88.6 23.3 84.5 35C80.5 46.8 75.4 58.6 66.8 66.8C58.3 75 46.3 79.6 34.6 83.6C22.9 87.6 11.5 91.1 0 94.5L0 0Z" fill="#fa9845"></path><path d="M47.3 0C45.8 5.8 44.3 11.6 42.3 17.5C40.2 23.4 37.7 29.3 33.4 33.4C29.1 37.5 23.2 39.8 17.3 41.8C11.5 43.8 5.7 45.5 0 47.3L0 0Z" fill="#fbae3c"></path></g></svg>